Coordinates
version=1
nRows=16
nColumns=36
inDegrees=yes

Units are S.I. units (second, meters, Newtons, ...)
If the header above contains a line with 'inDegrees', this indicates whether rotational values are in degrees (yes) or radians (no).

endheader
time	pelvis_tilt	pelvis_list	pelvis_rotation	pelvis_tx	pelvis_ty	pelvis_tz	hip_flexion_r	hip_adduction_r	hip_rotation_r	knee_angle_r	knee_angle_r_beta	ankle_angle_r	subtalar_angle_r	mtp_angle_r	hip_flexion_l	hip_adduction_l	hip_rotation_l	knee_angle_l	knee_angle_l_beta	ankle_angle_l	subtalar_angle_l	mtp_angle_l	lumbar_extension	lumbar_bending	lumbar_rotation	arm_flex_r	arm_add_r	arm_rot_r	elbow_flex_r	pro_sup_r	arm_flex_l	arm_add_l	arm_rot_l	elbow_flex_l	pro_sup_l
      1.43333330	     -5.68515970	      0.56191730	     -1.93674842	      0.19640153	      1.23329296	     -0.56686574	      4.94499712	     -0.97276663	     -2.22369160	      5.56613403	      0.09714737	      8.57522305	    -10.22625640	     -7.49992626	      5.38260715	     -0.70668143	     -4.97907587	      7.11133068	      0.12411613	      8.44257200	     -1.51593237	     -7.49992626	     -6.46804195	     -1.14551764	      0.30330098	     -6.98878349	    -13.33163989	     24.25984119	     17.42654175	     55.38580852	     -8.25874289	    -13.42525991	     16.09483195	     21.47794621	     56.55308854
      1.45000000	     -5.45836555	      0.55968159	     -2.00019094	      0.19516588	      1.23320901	     -0.56718973	      4.54221396	     -0.91920396	     -2.10154322	      5.36353571	      0.09361136	      8.65558570	    -10.14240364	     -7.49993605	      5.00084870	     -0.73861248	     -4.91938338	      6.97764514	      0.12178288	      8.35115965	     -1.45779979	     -7.49993605	     -6.92080179	     -1.17568939	      0.35392152	     -7.14208054	    -13.27343474	     23.99377789	     17.39024417	     55.33509643	     -8.49726942	    -13.62187821	     16.11029934	     22.00841736	     56.47671416
      1.46666670	     -5.35741950	      0.55725359	     -2.00007041	      0.19621037	      1.23299948	     -0.56678526	      4.31184308	     -0.88367214	     -2.05113634	      5.18016346	      0.09041091	      8.65008064	    -10.03184575	     -7.49994543	      4.77743546	     -0.77870806	     -4.93323924	      6.87163882	      0.11993272	      8.20406193	     -1.44403997	     -7.49994543	     -7.22802628	     -1.14543452	      0.30159296	     -7.37437332	    -13.30929292	     23.61590330	     17.55086771	     55.38415136	     -8.77945717	    -13.78744360	     16.04019401	     22.62280541	     56.49219646
      1.48333330	     -5.31081258	      0.60258304	     -1.97350552	      0.19504048	      1.23273799	     -0.56716273	      4.15490631	     -0.91084373	     -2.03040299	      4.95542954	      0.08648856	      8.66173860	     -9.81703078	     -7.49995313	      4.65914141	     -0.75306586	     -4.88561496	      6.80697169	      0.11880407	      8.07811750	     -1.42283028	     -7.49995313	     -7.55132211	     -1.10594307	      0.21604844	     -7.50370238	    -13.38671383	     23.30725617	     17.75853136	     55.31703200	     -8.89939307	    -13.94647060	     16.09304777	     23.05984248	     56.45319853
      1.50000000	     -5.30951278	      0.64958208	     -1.94524205	      0.19601298	      1.23276663	     -0.56672104	      4.05238115	     -0.93579864	     -2.00632088	      4.74393207	      0.08279723	      8.63933292	     -9.64840627	     -7.49996238	      4.62415726	     -0.73827136	     -4.87175123	      6.81695622	      0.11897833	      8.08718620	     -1.22308134	     -7.49996238	     -7.80015816	     -1.05384249	      0.16614646	     -7.66237310	    -13.65212280	     22.87615377	     17.90013063	     55.09335836	     -9.02539767	    -14.09214682	     16.27501428	     23.44530094	     56.32324462
      1.51666670	     -5.88244810	      0.71708789	     -1.96881184	      0.19534863	      1.23182999	     -0.56696286	      4.65349483	     -0.96789028	     -1.82797785	      4.65857700	      0.08130751	      8.74504191	     -9.43751979	     -7.49996507	      5.26454906	     -0.72086032	     -4.81195785	      6.93179163	      0.12098259	      8.03490542	     -1.30265525	     -7.49996507	     -7.33039508	     -1.08602348	      0.19856646	     -8.12966136	    -14.08087316	     22.70921872	     18.68919021	     55.30833728	     -9.56869531	    -14.34099800	     16.25610659	     24.40595218	     56.49116142
      1.53333330	     -5.36640682	      0.77021726	     -1.90870374	      0.19621172	      1.23248679	     -0.56645465	      4.00516126	     -1.02107039	     -1.75622158	      4.44515912	      0.07758266	      8.71485576	     -9.29533488	     -7.49997159	      4.67676253	     -0.66316933	     -4.76553944	      6.87419029	      0.11997725	      7.95522814	     -1.13210894	     -7.49997159	     -8.51744221	     -1.07163682	      0.28520065	     -7.99547406	    -14.35313801	     22.41019675	     18.96292279	     55.33262121	     -9.37694535	    -14.56682712	     16.40242622	     24.95255923	     56.55181819
      1.55000000	     -5.59577120	      0.85354488	     -1.83326921	      0.19537724	      1.23197405	     -0.56677361	      4.26682036	     -1.09975827	     -1.71749813	      4.42413840	      0.07721578	      8.70547111	     -9.26472111	     -7.49997389	      5.02968332	     -0.58663950	     -4.64870350	      7.02809421	      0.12266338	      7.92332779	     -1.19974647	     -7.49997389	     -8.67385966	     -0.99508432	      0.36117913	     -8.03491188	    -14.56063364	     22.29298658	     19.06019372	     55.34876266	     -9.46334386	    -14.75770909	     16.62925874	     25.48626844	     56.60714335
      1.56666670	     -5.76003926	      0.90025488	     -1.64184374	      0.19667518	      1.23182899	     -0.56642943	      4.41847188	     -1.15573130	     -1.85283817	      4.40246047	      0.07683743	      8.87598918	     -8.95436075	     -7.49997826	      5.34006040	     -0.55987233	     -4.59626691	      7.19194595	      0.12552314	      8.00787182	     -0.95987398	     -7.49997826	     -8.88914570	     -0.86388754	      0.39427773	     -7.97693093	    -14.57851680	     22.06500055	     18.79400140	     55.06502352	     -9.41014436	    -14.97741579	     17.22686931	     25.84425950	     56.46627560
      1.58333330	     -5.94919183	      0.97177337	     -1.50746105	      0.19585491	      1.23156074	     -0.56677310	      4.61630873	     -1.24826781	     -1.83924361	      4.44796334	      0.07763161	      8.92476014	     -9.03551260	     -7.49998379	      5.68337818	     -0.50271295	     -4.63692868	      7.38417621	      0.12887819	      7.99596165	     -0.86323850	     -7.49998379	     -9.24879574	     -0.82535019	      0.56452162	     -7.94750619	    -14.65212197	     21.85926452	     18.91669523	     54.98938494	     -9.30262886	    -15.18650220	     17.54982664	     26.34843533	     56.45721497
      1.60000000	     -6.13591867	      1.02132131	     -1.36779981	      0.19736891	      1.23146837	     -0.56640739	      4.79169751	     -1.31942814	     -1.91464572	      4.58098718	      0.07995331	      8.86422599	     -9.28242155	     -7.49998521	      6.11592105	     -0.48342908	     -4.62100349	      7.73411845	      0.13498583	      7.96982865	     -0.73391643	     -7.49998521	     -9.70061931	     -0.82225547	      0.70536132	     -8.29544394	    -14.84673679	     21.63514350	     19.32563203	     55.33400508	     -9.51102216	    -15.49344119	     17.38645214	     27.41156192	     56.69693487
      1.61666670	     -6.43155234	      1.04656099	     -1.14154143	      0.19653500	      1.23102790	     -0.56688918	      5.10623674	     -1.38047605	     -2.12337207	      4.74068471	      0.08274056	      9.11366760	     -9.31757896	     -7.49998758	      6.78594078	     -0.50173487	     -4.77694343	      8.33882107	      0.14553988	      8.26317063	     -0.38741604	     -7.49998758	    -10.02789104	     -0.72101583	      0.93700456	     -8.50515243	    -14.61847960	     21.48721896	     18.54376466	     55.23995576	     -9.23561286	    -15.64567639	     17.84315373	     27.54417435	     56.82974048
      1.63333330	     -6.54233438	      1.06645716	     -0.95175722	      0.19783183	      1.23109441	     -0.56669133	      5.14592365	     -1.43504690	     -2.14261677	      4.79529417	      0.08369367	      9.18043971	     -9.54413957	     -7.49998895	      7.11061985	     -0.49750861	     -4.84114896	      8.76580474	      0.15299215	      8.29401681	     -0.33668682	     -7.49998895	    -10.58434851	     -0.70186211	      1.19167531	     -9.12261388	    -14.63457610	     21.30000285	     19.02793215	     55.50879180	     -9.31687622	    -15.86163031	     17.69012039	     28.55235926	     57.04015427
      1.65000000	     -6.95467629	      1.04642247	     -0.74299144	      0.19735058	      1.23048929	     -0.56723255	      5.67444909	     -1.42992939	     -2.17202164	      5.09188212	      0.08887011	      9.28336708	     -9.75947336	     -7.49998927	      7.90770728	     -0.54042650	     -4.77503059	      9.39537621	      0.16398025	      8.50832134	     -0.26423840	     -7.49998927	    -10.80992039	     -0.64351560	      1.24227533	     -9.44656860	    -14.57840018	     21.21627295	     18.94343232	     55.66552503	     -9.41262224	    -16.08644003	     17.67207504	     29.15651345	     57.19030480
      1.66666670	     -7.18313769	      1.06200837	     -0.59164579	      0.19886491	      1.23048540	     -0.56703205	      5.99265741	     -1.46151612	     -2.17876613	      5.33118425	      0.09304672	      9.28599242	    -10.03539748	     -7.49999021	      8.42159922	     -0.56273744	     -4.97460531	      9.95522061	      0.17375138	      8.75260025	      0.12608300	     -7.49999021	    -11.30899314	     -0.68868641	      1.57443163	     -9.92876030	    -14.53817981	     20.93140268	     19.35607747	     55.87611303	     -9.44670578	    -16.34615515	     17.56750029	     30.09394097	     57.47610915
      1.68333330	     -7.59912019	      1.03410536	     -0.32501219	      0.19790557	      1.22698978	     -0.56770567	      6.69616916	     -1.46762103	     -2.19297682	      5.86277900	      0.10232480	      9.48691968	    -10.11965822	     -7.49999115	      9.37616354	     -0.63423143	     -5.05540975	     10.87642095	      0.18982936	      9.19696015	      0.45546628	     -7.49999115	    -11.71162293	     -0.70296377	      1.87530827	    -10.36986790	    -14.49932178	     20.68150621	     19.70703457	     56.01109140	     -9.38355847	    -16.58818520	     17.59292674	     30.90017182	     57.80197056
